<!DOCTYPE svg PUBLIC "-//W3C//DTD SVG 20010904//EN" "http://www.w3.org/TR/2001/REC-SVG-20010904/DTD/svg10.dtd">
<svg version="1.0" xmlns="http://www.w3.org/2000/svg" width="1000px" height="1000px" viewBox="0 0 10000 10000" preserveAspectRatio="xMidYMid meet">
<g id="layer1" fill="#ffff33" stroke="none">
 <path d="M6992 8553 c-38 -150 -85 -197 -235 -235 -61 -16 -87 -27 -87 -38 0 -11 26 -22 87 -38 48 -12 104 -33 125 -47 54 -36 84 -88 110 -188 16 -61 27 -87 38 -87 11 0 22 26 38 87 38 150 84 196 237 236 55 15 90 29 90 37 0 8 -35 22 -90 37 -153 40 -199 86 -237 236 -16 61 -27 87 -38 87 -11 0 -22 -26 -38 -87z"/>
 <path d="M2619 7748 c-38 -129 -68 -159 -197 -197 -40 -12 -72 -26 -72 -31 0 -5 31 -18 69 -30 135 -40 161 -66 200 -198 12 -40 26 -72 31 -72 5 0 19 32 31 72 38 129 68 159 197 197 40 12 72 26 72 31 0 5 -32 19 -72 31 -129 38 -159 68 -197 197 -12 40 -26 72 -31 72 -5 0 -19 -32 -31 -72z"/>
 <path d="M8735 6993 c-46 -178 -86 -258 -157 -315 -40 -32 -159 -81 -225 -92 -50 -9 -103 -28 -103 -37 0 -4 30 -15 68 -24 177 -46 257 -86 314 -157 32 -40 81 -159 92 -225 9 -50 28 -103 37 -103 4 0 15 30 24 68 46 175 90 263 161 317 39 30 145 71 257 100 37 9 67 20 67 24 0 8 -51 27 -100 36 -64 12 -171 55 -216 85 -76 53 -122 140 -169 323 -9 37 -21 67 -25 67 -4 0 -16 -30 -25 -67z"/>
 <path d="M917 6594 c-4 -4 -7 -16 -7 -28 0 -34 -38 -101 -69 -119 -16 -9 -46 -20 -67 -25 -51 -10 -51 -34 0 -44 77 -16 118 -57 134 -134 5 -23 14 -39 22 -39 8 0 17 16 22 39 16 77 57 118 134 134 51 10 51 34 0 44 -77 16 -118 57 -134 134 -7 37 -21 51 -35 38z"/>
 <path d="M6994 5383 c-42 -151 -76 -186 -226 -227 -32 -9 -58 -21 -58 -26 0 -5 26 -17 58 -26 150 -42 185 -76 226 -226 9 -32 21 -58 26 -58 5 0 17 26 26 58 41 150 76 184 227 226 31 9 57 21 57 26 0 5 -26 17 -57 26 -151 41 -185 76 -227 227 -9 31 -21 57 -26 57 -5 0 -17 -26 -26 -57z"/>
 <path d="M2694 5303 c-44 -202 -95 -253 -296 -297 -16 -4 -28 -13 -28 -21 0 -8 12 -17 28 -21 173 -38 234 -83 269 -199 12 -39 24 -82 27 -97 4 -16 13 -28 21 -28 8 0 17 12 21 28 44 201 95 252 297 296 15 4 27 13 27 21 0 8 -12 17 -27 21 -202 44 -253 95 -297 297 -4 15 -13 27 -21 27 -8 0 -17 -12 -21 -27z"/>
 <path d="M8434 3713 c-44 -202 -95 -253 -296 -297 -16 -4 -28 -13 -28 -21 0 -8 12 -17 28 -21 201 -44 252 -95 296 -296 4 -16 13 -28 21 -28 8 0 17 12 21 28 44 201 95 252 297 296 15 4 27 13 27 21 0 8 -12 17 -27 21 -202 44 -253 95 -297 297 -4 15 -13 27 -21 27 -8 0 -17 -12 -21 -27z"/>
 <path d="M2066 3448 c-3 -13 -8 -41 -11 -62 -11 -68 -58 -169 -98 -213 -41 -44 -146 -96 -222 -108 -75 -12 -85 -15 -85 -30 0 -15 10 -18 85 -30 76 -12 181 -64 222 -108 40 -44 87 -145 98 -213 12 -74 15 -84 30 -84 15 0 18 10 30 85 12 76 64 181 108 222 44 40 145 87 213 98 74 12 84 15 84 30 0 15 -10 18 -85 30 -76 12 -181 64 -222 108 -40 44 -87 145 -98 213 -12 74 -15 84 -30 84 -8 0 -17 -10 -19 -22z"/>
 <path d="M6756 2508 c-24 -86 -39 -128 -55 -155 -23 -37 -77 -67 -154 -87 -28 -7 -52 -19 -52 -26 0 -7 24 -19 54 -27 118 -30 164 -76 194 -194 8 -30 20 -54 27 -54 7 0 19 24 27 54 7 30 24 73 36 95 25 46 77 79 158 99 30 8 54 20 54 27 0 7 -24 19 -54 27 -118 30 -164 76 -194 193 -14 52 -33 76 -41 48z"/>
 <path d="M3437 1914 c-4 -4 -7 -16 -7 -28 0 -34 -38 -101 -69 -119 -16 -9 -46 -20 -67 -25 -51 -10 -51 -34 0 -44 77 -16 118 -57 134 -134 10 -51 34 -51 44 0 16 77 57 118 134 134 51 10 51 34 0 44 -77 16 -118 57 -134 134 -7 37 -21 51 -35 38z"/>
 </g>
<g id="layer2" fill="#ffffff" stroke="none">
 <path d="M4680 9989 c-1191 -80 -2376 -616 -3214 -1455 -994 -993 -1546 -2447 -1455 -3829 72 -1101 499 -2145 1224 -2992 644 -750 1596 -1325 2605 -1571 1140 -279 2325 -140 3401 399 1147 573 1988 1516 2445 2737 484 1294 403 2705 -227 3963 -531 1062 -1371 1857 -2474 2339 -723 316 -1535 460 -2305 409z m750 -184 c413 -43 852 -145 1215 -280 1096 -411 1955 -1128 2509 -2094 364 -634 573 -1277 653 -2011 23 -211 23 -629 0 -840 -69 -635 -230 -1186 -508 -1741 -475 -949 -1189 -1663 -2138 -2138 -555 -278 -1106 -439 -1741 -508 -211 -23 -629 -23 -840 0 -635 69 -1186 230 -1741 508 -949 475 -1663 1189 -2138 2138 -278 555 -439 1106 -508 1741 -23 211 -23 629 0 840 48 435 145 859 282 1225 516 1377 1503 2364 2880 2880 416 155 903 260 1380 295 158 11 514 4 695 -15z"/>
 <path d="M4892 9698 c3 -7 49 -131 104 -275 98 -261 99 -263 131 -269 18 -3 39 -4 46 -1 7 2 66 121 131 263 65 143 121 262 123 267 2 4 -17 7 -44 7 l-48 0 -35 -80 -34 -80 -82 0 c-139 0 -138 0 -176 96 l-33 84 -44 0 c-30 0 -42 -4 -39 -12z m336 -243 c1 -1 -17 -50 -41 -108 l-43 -106 -37 109 c-20 60 -37 111 -37 113 0 4 153 -4 158 -8z"/>
 <path d="M4764 9576 l6 -124 -62 -6 c-35 -3 -95 -9 -134 -12 l-72 -6 -6 38 c-3 22 -8 66 -11 99 -11 113 -11 111 -55 107 -29 -3 -40 -9 -40 -21 0 -30 68 -522 72 -527 3 -2 20 -1 38 2 l33 7 -6 56 c-4 31 -9 81 -13 112 l-6 56 78 7 c44 4 102 9 130 12 l51 6 6 -39 c4 -21 7 -73 7 -115 l0 -78 41 0 42 0 -7 153 c-3 83 -9 207 -12 275 l-6 122 -41 0 -40 0 7 -124z"/>
 <path d="M5570 9641 c-80 -42 -130 -149 -130 -277 0 -124 45 -204 139 -246 53 -24 146 -26 189 -4 28 14 102 91 102 106 0 3 -17 14 -37 24 -35 17 -37 17 -47 -1 -5 -10 -22 -30 -37 -45 -23 -23 -36 -28 -77 -28 -60 0 -107 29 -135 83 -45 88 -10 266 62 314 45 30 122 31 169 3 32 -20 71 -86 72 -122 0 -14 9 -18 40 -18 35 0 40 3 40 23 0 75 -54 156 -125 188 -56 26 -178 26 -225 0z"/>
 <path d="M4052 9610 c-18 -4 -35 -10 -38 -12 -2 -3 7 -54 21 -114 l24 -109 -55 -174 c-30 -96 -53 -176 -50 -178 2 -2 28 2 57 10 l53 13 36 120 35 120 79 -94 79 -94 56 7 c31 4 58 8 60 10 2 2 -52 67 -119 144 l-121 140 -21 111 c-23 121 -20 118 -96 100z"/>
 <path d="M6046 9573 c-17 -57 -116 -516 -112 -520 2 -3 19 -6 37 -6 l32 -2 28 108 c15 60 29 110 31 112 1 2 40 -63 84 -143 79 -143 83 -148 128 -164 29 -11 46 -14 46 -7 0 6 -30 69 -67 139 -38 71 -66 130 -63 133 3 2 76 54 163 116 86 61 157 113 157 115 0 2 -21 11 -46 20 l-47 16 -135 -100 -136 -100 -29 47 -29 46 21 83 c28 112 33 100 -41 120 -10 3 -19 -2 -22 -13z"/>
 <path d="M3819 9554 c-51 -16 -59 -29 -59 -100 l0 -41 -107 -35 -108 -35 -45 49 -45 50 -57 -23 c-57 -21 -57 -22 -40 -43 9 -12 97 -112 196 -223 l178 -201 44 15 c50 17 42 -16 79 321 27 238 29 283 18 281 -5 -1 -29 -7 -54 -15z m-80 -321 c-1 -38 -4 -78 -8 -91 -6 -22 -10 -19 -59 43 -30 37 -51 70 -47 73 6 7 93 40 108 41 4 1 7 -29 6 -66z"/>
 <path d="M6557 9368 c-37 -23 -77 -72 -77 -94 0 -6 16 -16 36 -22 34 -10 37 -9 66 23 53 61 149 56 215 -10 39 -39 42 -71 11 -110 l-22 -28 -90 9 c-180 17 -223 8 -262 -51 -23 -36 -22 -114 2 -156 31 -53 104 -92 178 -97 69 -5 104 8 145 52 28 29 23 51 -14 60 -20 5 -34 1 -56 -19 -49 -41 -132 -27 -177 30 -27 34 -28 66 -2 90 18 16 31 17 122 10 181 -14 223 -3 259 67 43 85 6 179 -91 232 -43 23 -70 30 -130 33 -65 4 -80 1 -113 -19z"/>
 <path d="M3121 9318 c-19 -7 -54 -30 -77 -52 -51 -49 -63 -95 -41 -158 16 -47 28 -51 91 -24 34 14 34 15 24 50 -14 45 7 81 54 91 46 10 60 -11 147 -210 40 -94 76 -173 80 -177 9 -11 91 22 91 36 0 6 -32 92 -72 191 -90 225 -115 257 -204 261 -32 2 -74 -2 -93 -8z"/>
 <path d="M3740 3508 l0 -43 130 -74 c72 -40 130 -77 130 -82 0 -5 29 -327 65 -716 36 -390 65 -716 65 -725 0 -11 43 -39 134 -87 73 -39 140 -71 147 -71 8 1 111 45 229 99 l215 98 17 669 c9 368 18 738 20 822 l3 152 -577 0 -578 0 0 -42z"/>
 <path d="M5080 3473 c-1 -196 32 -1502 38 -1531 7 -32 14 -36 226 -133 l219 -99 136 71 c75 40 137 72 138 73 0 1 31 329 68 730 36 401 68 732 70 736 3 4 61 40 130 79 l125 73 0 39 0 39 -575 0 -575 0 0 -77z"/>
 <path d="M8231 2449 c-29 -39 -23 -46 76 -92 118 -56 222 -79 312 -71 l75 7 -22 -23 c-12 -13 -34 -42 -49 -64 -15 -23 -45 -63 -66 -90 l-38 -50 32 -30 32 -30 38 45 c21 24 39 48 39 52 0 5 37 56 82 114 l81 106 -28 20 c-24 18 -44 21 -159 22 -117 1 -139 4 -205 29 -41 15 -95 41 -121 57 -26 16 -49 29 -52 29 -2 0 -14 -14 -27 -31z"/>
 <path d="M1694 2427 c-52 -42 -275 -209 -347 -259 l-39 -27 44 -48 c25 -26 81 -94 127 -150 45 -57 87 -103 93 -103 7 0 22 10 34 21 l23 22 -62 76 c-34 42 -79 94 -99 117 l-38 41 60 47 61 46 24 -27 c14 -16 48 -58 77 -95 29 -37 58 -67 63 -67 15 0 57 37 53 47 -3 10 -63 83 -115 141 -18 20 -32 41 -32 46 0 8 135 117 181 146 12 8 -30 69 -46 68 -6 0 -34 -19 -62 -42z"/>
 <path d="M8032 2217 c-12 -13 -22 -27 -21 -33 1 -5 33 -38 73 -74 39 -36 106 -97 147 -136 l77 -70 -69 -18 c-38 -10 -69 -21 -69 -24 0 -4 12 -20 26 -36 l25 -28 54 17 c30 9 78 15 109 14 47 -2 58 1 74 21 l18 23 -61 56 c-206 189 -339 306 -349 309 -7 1 -22 -8 -34 -21z"/>
 <path d="M1950 2067 c-41 -40 -128 -122 -192 -184 -65 -61 -118 -115 -118 -121 0 -5 68 -74 151 -153 l150 -142 27 27 27 27 -122 115 -122 115 52 49 c29 28 56 50 61 50 5 0 55 -46 112 -102 57 -56 105 -100 106 -97 2 2 13 16 26 30 l22 26 -105 104 -106 103 61 60 60 61 67 -65 c38 -36 89 -85 116 -110 l47 -44 28 28 27 28 -140 134 c-76 74 -144 134 -150 134 -5 0 -44 -33 -85 -73z"/>
 <path d="M7742 1930 c-105 -76 -95 -193 30 -347 120 -148 238 -176 334 -79 98 97 73 207 -79 356 -110 106 -204 129 -285 70z m206 -114 c72 -65 132 -153 132 -192 0 -60 -47 -91 -128 -85 -21 2 -102 82 -149 148 -73 103 -67 173 17 183 54 7 69 0 128 -54z"/>
 <path d="M2360 1812 c0 -5 -60 -79 -132 -165 -181 -212 -198 -234 -197 -249 1 -16 161 -143 221 -176 97 -53 208 9 208 116 0 38 1 40 38 45 42 7 94 54 111 100 25 66 9 138 -43 186 -14 13 -23 29 -19 35 3 6 3 8 -2 4 -9 -8 -80 41 -121 83 -26 27 -64 39 -64 21z m167 -218 c18 -28 12 -78 -14 -106 -34 -38 -81 -22 -199 65 l-31 23 54 67 55 67 59 -46 c33 -25 67 -57 76 -70z m-154 -196 c39 -52 -19 -122 -82 -100 -28 10 -149 92 -150 102 -1 3 20 31 46 62 l46 57 61 -48 c34 -27 69 -60 79 -73z"/>
 <path d="M7405 1648 l-138 -102 36 -31 c45 -39 87 -52 212 -65 131 -14 172 -26 208 -61 23 -24 28 -35 22 -57 -16 -67 -95 -101 -147 -62 l-28 21 -30 -23 c-16 -12 -30 -28 -30 -35 0 -7 18 -25 41 -40 60 -40 122 -37 187 8 65 44 94 88 99 147 10 116 -84 172 -317 189 l-114 8 29 19 c16 11 35 19 42 19 7 0 10 4 8 8 -6 8 44 42 62 42 7 0 10 4 8 8 -3 4 6 14 20 23 14 9 25 22 25 29 -1 15 -35 57 -48 57 -5 0 -71 -46 -147 -102z"/>
 <path d="M2723 1505 c-13 -19 -23 -37 -23 -41 0 -3 -56 -88 -125 -190 -69 -101 -125 -187 -125 -192 0 -4 60 -44 133 -89 139 -86 215 -115 242 -93 8 7 15 9 15 6 0 -4 10 2 22 14 12 11 25 20 28 20 14 0 50 80 50 110 0 37 -13 65 -47 101 l-24 26 33 7 c41 8 227 117 228 133 0 7 -18 22 -40 33 -22 11 -40 17 -40 12 0 -5 -34 -26 -75 -48 -41 -21 -75 -43 -75 -47 0 -5 -4 -6 -9 -2 -5 3 -15 -1 -23 -8 -28 -29 -60 -27 -119 5 l-57 32 22 30 c28 37 96 161 96 173 0 7 -51 43 -62 43 -1 0 -13 -16 -25 -35z m32 -335 c18 0 84 -63 89 -87 16 -62 -41 -115 -99 -93 -42 16 -176 101 -173 110 2 4 21 34 42 67 l40 60 47 -28 c25 -16 50 -29 54 -29z"/>
 <path d="M6940 1455 c0 -18 7 -26 24 -31 25 -6 45 -36 28 -42 -11 -3 19 -82 31 -82 17 0 67 31 67 42 0 6 -10 27 -22 46 -50 81 -128 122 -128 67z"/>
 <path d="M6733 1265 c-41 -18 -84 -83 -90 -137 -5 -59 5 -72 55 -63 40 6 40 7 39 50 -2 53 14 73 65 81 31 5 41 1 77 -32 23 -20 46 -45 51 -55 9 -16 7 -17 -19 -9 -37 10 -96 -2 -130 -28 -36 -26 -71 -98 -71 -144 0 -54 35 -123 83 -160 32 -25 51 -33 97 -36 63 -5 106 12 147 56 73 78 77 159 14 285 -82 166 -206 241 -318 192z m228 -245 c32 -18 52 -68 46 -119 -6 -58 -33 -81 -94 -81 -37 0 -50 5 -73 30 -71 76 -32 178 68 180 18 0 42 -5 53 -10z"/>
 <path d="M3205 1226 c-45 -20 -94 -93 -183 -272 l-81 -161 35 -16 c19 -10 39 -17 44 -17 6 0 49 78 96 173 47 94 93 180 103 190 33 34 127 20 179 -26 34 -32 28 -81 -28 -230 -28 -73 -57 -147 -65 -165 -24 -53 -19 -67 26 -85 l40 -16 15 34 c8 19 14 39 14 45 0 5 25 74 57 152 45 116 56 155 57 205 1 54 -3 65 -30 100 -63 79 -204 124 -279 89z"/>
 <path d="M6420 1123 c-41 -15 -40 -21 24 -209 51 -148 60 -184 47 -183 -9 0 -38 4 -64 8 -26 4 -50 4 -53 -1 -9 -14 19 -78 36 -79 8 -1 30 -3 47 -5 18 -1 58 -16 88 -32 48 -26 60 -29 85 -20 17 5 30 12 30 16 0 3 -13 32 -29 66 -32 69 -161 416 -161 434 0 12 -24 15 -50 5z"/>
 <path d="M3601 873 c4 -132 10 -267 14 -300 l7 -61 49 -12 c28 -7 51 -11 53 -9 2 2 29 42 62 89 32 47 105 147 161 223 57 75 106 143 109 151 7 17 -1 22 -46 30 -34 7 -36 6 -80 -64 -25 -38 -50 -70 -56 -70 -5 0 -49 13 -96 29 -48 16 -90 26 -93 23 -4 -4 -4 34 0 84 8 101 4 108 -55 119 l-35 6 6 -238z m161 -73 l68 -21 -47 -67 c-89 -127 -80 -124 -88 -35 -3 43 -8 93 -11 111 -3 17 -2 32 2 32 4 0 38 -9 76 -20z"/>
 <path d="M4077 853 c-14 -59 -33 -148 -42 -198 -9 -49 -23 -118 -31 -152 -8 -34 -14 -68 -14 -75 0 -20 242 -70 329 -68 97 2 166 96 141 189 -7 26 -25 53 -54 78 l-43 38 22 17 c33 25 155 185 155 203 0 11 -12 15 -42 15 -42 0 -45 -3 -121 -96 -43 -52 -89 -99 -103 -104 -20 -8 -118 3 -132 15 -1 1 9 53 24 114 14 62 24 114 22 116 -1 2 -22 6 -44 9 l-42 7 -25 -108z m136 -238 c15 0 27 -4 27 -9 0 -4 9 -6 20 -3 11 3 22 1 25 -4 3 -4 12 -6 20 -3 17 7 75 -47 75 -70 0 -30 -23 -65 -52 -77 -23 -9 -45 -8 -111 5 -45 9 -93 16 -106 16 -17 0 -22 4 -17 15 3 9 11 45 18 81 l12 65 30 -8 c17 -4 43 -7 59 -8z"/>
 <path d="M5723 933 c-40 -5 -42 -19 -11 -100 36 -99 137 -239 211 -293 l38 -28 -73 -12 c-40 -6 -80 -14 -88 -17 -8 -3 -19 -7 -25 -8 -5 0 -27 -5 -49 -9 l-38 -9 6 -40 c4 -23 8 -42 10 -44 1 -1 74 11 162 28 87 17 172 33 187 36 47 9 30 54 -47 124 -112 103 -225 281 -226 357 0 12 -6 21 -12 20 -7 0 -28 -3 -45 -5z"/>
 <path d="M5383 874 c-6 -15 -3 -40 17 -194 5 -41 13 -104 18 -141 l8 -65 -51 28 c-70 39 -85 37 -85 -9 0 -36 3 -40 53 -64 28 -14 51 -31 49 -38 -1 -7 2 -10 8 -6 6 3 24 -7 41 -24 35 -36 89 -44 89 -13 -1 9 -10 94 -21 187 -11 94 -25 212 -31 263 l-11 92 -39 0 c-26 0 -41 -5 -45 -16z"/>
 <path d="M6130 860 c-111 -29 -127 -43 -97 -84 14 -19 16 -18 113 6 85 21 99 27 96 44 -1 10 -4 29 -5 41 -1 13 -2 22 -2 22 0 -1 -47 -14 -105 -29z"/>
 <path d="M4725 802 c-4 -37 -6 -72 -5 -77 1 -6 2 -29 1 -52 -1 -36 -9 -53 -54 -105 -109 -130 -177 -217 -177 -226 0 -5 19 -13 43 -16 40 -7 43 -6 80 36 21 24 63 75 95 115 31 39 59 70 63 68 3 -3 38 -58 78 -125 l72 -120 49 0 c28 0 50 4 50 10 0 5 -47 80 -103 166 l-104 157 3 119 2 118 -43 0 -43 0 -7 -68z"/>
 </g>
<g id="layer3" fill="#b8b097" stroke="none">
 <path d="M4803 9043 c-10 -3 -13 -53 -13 -199 l0 -194 -184 0 c-180 0 -185 -1 -200 -22 -21 -30 -20 -44 4 -68 19 -19 33 -20 200 -20 l180 0 0 -300 0 -300 -180 0 c-167 0 -181 -1 -200 -20 -11 -11 -20 -27 -20 -35 0 -8 9 -24 20 -35 19 -19 33 -20 200 -20 l180 0 0 -305 0 -305 -190 0 -190 0 -12 -25 c-9 -19 -8 -29 6 -50 l16 -25 160 0 160 0 0 -165 0 -164 -147 -3 -148 -3 -3 -27 c-2 -17 1 -28 9 -28 8 0 8 -4 -1 -15 -17 -21 -8 -30 154 -150 l135 -100 1 -121 0 -122 -151 -112 c-102 -77 -148 -118 -145 -127 4 -8 6 -17 6 -19 0 -16 40 9 157 96 l133 100 0 -110 0 -109 -147 -3 -148 -3 0 -30 0 -30 148 -3 147 -3 0 -760 c0 -694 1 -760 16 -766 9 -3 24 -2 33 4 14 9 16 83 19 767 l2 756 135 0 135 0 2 -762 3 -763 30 0 30 0 3 763 2 762 144 0 c137 0 145 1 151 20 14 43 -8 50 -156 50 l-139 0 0 106 c0 81 3 103 13 98 6 -4 65 -48 130 -97 112 -84 147 -99 147 -63 0 8 -65 63 -145 122 l-145 108 0 127 0 127 145 108 c138 103 159 124 134 139 -6 5 -4 11 6 19 10 7 16 21 13 32 -3 18 -14 19 -151 22 l-147 3 0 164 0 165 135 0 c133 0 135 0 151 25 14 21 15 31 6 50 l-12 25 -175 0 -175 0 0 305 0 305 165 0 c152 0 167 2 185 20 11 11 20 27 20 35 0 8 -9 24 -20 35 -18 18 -33 20 -185 20 l-165 0 0 300 0 300 165 0 c152 0 167 2 185 20 24 24 25 38 4 68 -15 21 -21 22 -185 22 l-169 0 0 200 0 200 -132 -1 c-73 0 -139 -3 -145 -6z m277 -2113 l0 -140 -135 0 -135 0 1 138 1 137 16 -52 15 -53 103 0 103 0 12 55 c7 30 14 55 16 55 1 0 3 -63 3 -140z m-340 -305 c0 -52 -2 -95 -5 -95 -3 0 -62 43 -132 95 l-126 95 131 0 132 0 0 -95z m340 -27 l-1 -123 -64 -47 c-35 -27 -69 -48 -75 -48 -7 0 -38 21 -71 46 l-59 45 0 125 0 124 135 0 135 0 0 -122z m319 119 c-2 -2 -59 -45 -126 -96 l-123 -92 0 96 0 95 127 0 c69 0 124 -2 122 -3z m-527 -395 c-59 -51 -62 -50 -62 23 l0 66 45 -33 44 -33 -27 -23z m208 17 l0 -70 -45 32 c-25 18 -45 36 -45 40 0 6 79 69 87 69 2 0 3 -32 3 -71z m-69 -80 l69 -51 0 -134 0 -134 -135 0 -135 0 0 138 1 137 62 47 c34 26 64 47 66 47 2 1 34 -22 72 -50z"/>
 <path d="M5580 6665 l0 -2335 -640 0 -640 0 0 2329 0 2329 -112 -24 c-171 -37 -396 -100 -539 -151 l-129 -47 0 -2120 c0 -1167 3 -2299 7 -2517 l6 -396 78 -62 77 -61 1289 0 1288 0 83 83 83 83 2 2504 2 2503 -107 38 c-197 70 -636 179 -721 179 l-27 0 0 -2335z"/>
 <path d="M1584 8408 l-19 -23 23 19 c21 18 27 26 19 26 -2 0 -12 -10 -23 -22z"/>
 <path d="M8405 8410 c10 -11 20 -20 23 -20 3 0 -3 9 -13 20 -10 11 -20 20 -23 20 -3 0 3 -9 13 -20z"/>
 <path d="M1585 1590 c10 -11 20 -20 23 -20 3 0 -3 9 -13 20 -10 11 -20 20 -23 20 -3 0 3 -9 13 -20z"/>
 <path d="M8404 1588 l-19 -23 23 19 c12 11 22 21 22 23 0 8 -8 2 -26 -19z"/>
 </g>
<g id="layer4" fill="#000000" stroke="none">
 <path d="M4740 9819 c-512 -34 -1050 -157 -1525 -348 -180 -73 -543 -253 -705 -351 -362 -218 -622 -421 -916 -714 -293 -294 -496 -554 -714 -916 -98 -162 -278 -525 -351 -705 -255 -634 -387 -1381 -350 -1987 42 -697 198 -1294 501 -1913 256 -523 522 -898 914 -1291 393 -392 768 -658 1291 -914 619 -303 1216 -459 1912 -501 608 -37 1357 95 1988 351 165 67 494 227 652 319 365 210 663 440 969 745 392 393 658 768 914 1291 303 619 459 1216 501 1913 37 607 -95 1356 -351 1987 -67 165 -227 494 -319 652 -210 365 -440 663 -745 969 -306 305 -604 535 -969 745 -158 92 -487 252 -652 319 -651 264 -1401 391 -2045 349z m268 -193 c38 -96 37 -96 176 -96 l82 0 34 80 35 80 48 0 c27 0 46 -3 44 -7 -2 -5 -58 -124 -123 -267 -65 -142 -124 -261 -131 -263 -7 -3 -28 -2 -46 1 -32 6 -33 8 -131 269 -55 144 -101 268 -104 275 -3 8 9 12 39 12 l44 0 33 -84z m-164 -48 c3 -68 9 -192 12 -275 l7 -153 -42 0 -41 0 0 78 c0 42 -3 94 -7 115 l-6 39 -51 -6 c-28 -3 -86 -8 -130 -12 l-78 -7 6 -56 c4 -31 9 -81 13 -112 l6 -56 -33 -7 c-18 -3 -35 -4 -38 -2 -4 5 -72 497 -72 527 0 12 11 18 40 21 44 4 44 6 55 -107 3 -33 8 -77 11 -99 l6 -38 72 6 c39 3 99 9 134 12 l62 6 -6 124 -7 124 40 0 41 0 6 -122z m951 63 c71 -32 125 -113 125 -188 0 -20 -5 -23 -40 -23 -31 0 -40 4 -40 18 -1 36 -40 102 -72 122 -47 28 -124 27 -169 -3 -72 -48 -107 -226 -62 -314 28 -54 75 -83 135 -83 41 0 54 5 77 28 15 15 32 35 37 45 10 18 12 18 47 1 20 -10 37 -21 37 -24 0 -15 -74 -92 -102 -106 -43 -22 -136 -20 -189 4 -94 42 -139 122 -139 246 0 128 50 235 130 277 47 26 169 26 225 0z m-1647 -131 l21 -111 121 -140 c67 -77 121 -142 119 -144 -2 -2 -29 -6 -60 -10 l-56 -7 -79 94 -79 94 -35 -120 -36 -120 -53 -13 c-29 -8 -55 -12 -57 -10 -3 2 20 82 50 178 l55 174 -24 109 c-14 60 -23 111 -21 114 7 6 66 20 92 21 19 1 23 -10 42 -109z m1960 65 c27 -8 27 -6 1 -109 l-21 -83 29 -46 29 -47 136 100 135 100 47 -16 c25 -9 46 -18 46 -20 0 -2 -71 -54 -157 -115 -87 -62 -160 -114 -163 -116 -3 -3 25 -62 63 -133 37 -70 67 -133 67 -139 0 -7 -17 -4 -46 7 -45 16 -49 21 -128 164 -44 80 -83 145 -84 143 -2 -2 -16 -52 -31 -112 l-28 -108 -32 2 c-18 0 -35 3 -37 6 -4 4 95 463 112 520 3 11 12 16 22 13 9 -2 27 -7 40 -11z m-2228 -35 c0 -27 -42 -423 -55 -517 -6 -38 -9 -43 -49 -56 l-44 -15 -178 201 c-99 111 -187 211 -196 223 -17 21 -17 22 40 43 l57 23 45 -50 45 -49 108 35 107 35 0 41 c0 71 8 84 59 100 63 19 61 20 61 -14z m2920 -186 c97 -53 134 -147 91 -232 -36 -70 -78 -81 -259 -67 -91 7 -104 6 -122 -10 -55 -50 23 -145 119 -145 17 0 42 11 60 25 22 20 36 24 56 19 37 -9 42 -31 14 -60 -41 -44 -76 -57 -145 -52 -74 5 -147 44 -178 97 -24 42 -25 120 -2 156 39 59 82 68 262 51 l90 -9 22 28 c31 39 28 71 -11 110 -66 66 -162 71 -215 10 -29 -32 -32 -33 -66 -23 -20 6 -36 16 -36 22 0 22 40 71 77 94 33 20 48 23 113 19 60 -3 87 -10 130 -33z m-3491 -70 c28 -29 55 -84 109 -219 40 -99 72 -185 72 -191 0 -14 -82 -47 -91 -36 -4 4 -40 83 -80 177 -87 199 -101 220 -147 210 -47 -10 -68 -46 -54 -91 10 -35 10 -36 -24 -50 -63 -27 -75 -23 -91 24 -22 63 -10 109 41 158 52 49 93 64 170 60 54 -2 62 -6 95 -42z m1771 -434 l0 -200 169 0 c164 0 170 -1 185 -22 21 -30 20 -44 -4 -68 -18 -18 -33 -20 -185 -20 l-165 0 0 -300 0 -300 165 0 c152 0 167 -2 185 -20 11 -11 20 -27 20 -35 0 -8 -9 -24 -20 -35 -18 -18 -33 -20 -185 -20 l-165 0 0 -305 0 -305 175 0 175 0 12 -25 c9 -19 8 -29 -6 -50 -16 -25 -18 -25 -151 -25 l-135 0 0 -165 0 -164 147 -3 c137 -3 148 -4 151 -22 3 -11 -3 -25 -13 -32 -10 -8 -12 -14 -6 -19 25 -15 4 -36 -134 -139 l-145 -108 0 -127 0 -127 145 -108 c80 -59 145 -114 145 -122 0 -36 -35 -21 -147 63 -65 49 -124 93 -130 97 -10 5 -13 -17 -13 -98 l0 -106 139 0 c148 0 170 -7 156 -50 -6 -19 -14 -20 -151 -20 l-144 0 -2 -762 -3 -763 -30 0 -30 0 -3 763 -2 762 -135 0 -135 0 -2 -756 c-3 -684 -5 -758 -19 -767 -9 -6 -24 -7 -33 -4 -15 6 -16 72 -16 766 l0 760 -147 3 -148 3 0 30 0 30 148 3 147 3 0 109 0 110 -133 -100 c-117 -87 -157 -112 -157 -96 0 2 -2 11 -6 19 -3 9 43 50 145 127 l151 112 0 122 -1 121 -135 100 c-162 120 -171 129 -154 150 9 11 9 15 1 15 -8 0 -11 11 -9 28 l3 27 148 3 147 3 0 164 0 165 -160 0 -160 0 -16 25 c-14 21 -15 31 -6 50 l12 25 190 0 190 0 0 305 0 305 -180 0 c-167 0 -181 1 -200 20 -11 11 -20 27 -20 35 0 8 9 24 20 35 19 19 33 20 200 20 l180 0 0 300 0 300 -180 0 c-167 0 -181 1 -200 20 -24 24 -25 38 -4 68 15 21 20 22 200 22 l184 0 0 194 c0 146 3 196 13 199 6 3 72 6 145 6 l132 1 0 -200z m700 120 c181 -37 405 -98 548 -149 l107 -38 -2 -2503 -2 -2504 -83 -83 -83 -83 -1288 0 -1289 0 -77 61 -78 62 -6 396 c-4 218 -7 1350 -7 2517 l0 2120 129 47 c143 51 368 114 539 151 l112 24 0 -2329 0 -2329 640 0 640 0 0 2335 0 2335 27 0 c15 0 93 -14 173 -30z m1288 -417 c38 -150 84 -196 237 -236 55 -15 90 -29 90 -37 0 -8 -35 -22 -90 -37 -153 -40 -199 -86 -237 -236 -16 -61 -27 -87 -38 -87 -11 0 -22 26 -38 87 -12 48 -33 104 -47 125 -36 54 -88 84 -188 110 -61 16 -87 27 -87 38 0 11 26 22 87 38 150 38 197 85 235 235 16 61 27 87 38 87 11 0 22 -26 38 -87z m-4387 -805 c38 -129 68 -159 197 -197 40 -12 72 -26 72 -31 0 -5 -32 -19 -72 -31 -129 -38 -159 -68 -197 -197 -12 -40 -26 -72 -31 -72 -5 0 -19 32 -31 72 -39 132 -65 158 -200 198 -38 12 -69 25 -69 30 0 5 32 19 72 31 129 38 159 68 197 197 12 40 26 72 31 72 5 0 19 -32 31 -72z m6104 -755 c47 -183 93 -270 169 -323 45 -30 152 -73 216 -85 49 -9 100 -28 100 -36 0 -4 -30 -15 -67 -24 -112 -29 -218 -70 -257 -100 -71 -54 -115 -142 -161 -317 -9 -38 -20 -68 -24 -68 -9 0 -28 53 -37 103 -11 66 -60 185 -92 225 -57 71 -137 111 -314 157 -38 9 -68 20 -68 24 0 9 53 28 103 37 66 11 185 60 225 92 71 57 111 137 157 315 9 37 21 67 25 67 4 0 16 -30 25 -67z m-7833 -437 c16 -77 57 -118 134 -134 51 -10 51 -34 0 -44 -77 -16 -118 -57 -134 -134 -5 -23 -14 -39 -22 -39 -8 0 -17 16 -22 39 -16 77 -57 118 -134 134 -51 10 -51 34 0 44 21 5 51 16 67 25 31 18 69 85 69 119 0 50 32 42 42 -10z m6094 -1173 c42 -151 76 -186 227 -227 31 -9 57 -21 57 -26 0 -5 -26 -17 -57 -26 -151 -42 -186 -76 -227 -226 -9 -32 -21 -58 -26 -58 -5 0 -17 26 -26 58 -41 150 -76 184 -226 226 -32 9 -58 21 -58 26 0 5 26 17 58 26 150 41 184 76 226 227 9 31 21 57 26 57 5 0 17 -26 26 -57z m-4310 -80 c44 -202 95 -253 297 -297 15 -4 27 -13 27 -21 0 -8 -12 -17 -27 -21 -202 -44 -253 -95 -297 -296 -4 -16 -13 -28 -21 -28 -8 0 -17 12 -21 28 -44 201 -95 252 -296 296 -16 4 -28 13 -28 21 0 8 12 17 28 21 201 44 252 95 296 297 4 15 13 27 21 27 8 0 17 -12 21 -27z m5740 -1590 c44 -202 95 -253 297 -297 15 -4 27 -13 27 -21 0 -8 -12 -17 -27 -21 -202 -44 -253 -95 -297 -296 -4 -16 -13 -28 -21 -28 -8 0 -17 12 -21 28 -44 201 -95 252 -296 296 -16 4 -28 13 -28 21 0 8 12 17 28 21 173 38 234 83 269 199 12 39 24 82 27 98 4 15 13 27 21 27 8 0 17 -12 21 -27z m-3584 -315 c-2 -84 -11 -454 -20 -822 l-17 -669 -215 -98 c-118 -54 -221 -98 -229 -99 -7 0 -74 32 -147 71 -91 48 -134 76 -134 87 0 9 -29 335 -65 725 -36 389 -65 711 -65 716 0 5 -58 42 -130 82 l-130 74 0 43 0 42 578 0 577 0 -3 -152z m1338 113 l0 -39 -125 -73 c-69 -39 -127 -75 -130 -79 -2 -4 -34 -335 -70 -736 -37 -401 -68 -729 -68 -730 -1 -1 -63 -33 -138 -73 l-136 -71 -219 99 c-212 97 -219 101 -226 133 -6 29 -39 1335 -38 1531 l0 77 575 0 575 0 0 -39z m-4126 -63 c3 -13 8 -41 11 -62 11 -68 58 -169 98 -213 41 -44 146 -96 222 -108 75 -12 85 -15 85 -30 0 -15 -10 -18 -84 -30 -68 -11 -169 -58 -213 -98 -44 -41 -96 -146 -108 -222 -12 -75 -15 -85 -30 -85 -15 0 -18 10 -30 84 -11 68 -58 169 -98 213 -41 44 -146 96 -222 108 -75 12 -85 15 -85 30 0 15 10 18 85 30 76 12 181 64 222 108 40 44 87 145 98 213 12 74 15 84 30 84 8 0 17 -10 19 -22z m4693 -988 c30 -117 76 -163 194 -193 30 -8 54 -20 54 -27 0 -7 -24 -19 -54 -27 -30 -7 -73 -24 -95 -36 -46 -25 -79 -77 -99 -158 -8 -30 -20 -54 -27 -54 -7 0 -19 24 -27 54 -30 118 -76 164 -194 194 -30 8 -54 20 -54 27 0 7 24 19 52 26 77 20 131 50 154 87 16 27 31 69 55 155 8 28 27 4 41 -48z m1513 -9 c26 -16 80 -42 121 -57 66 -25 88 -28 205 -29 115 -1 135 -4 159 -22 l28 -20 -81 -106 c-45 -58 -82 -109 -82 -114 0 -4 -18 -28 -39 -52 l-38 -45 -32 30 -32 30 38 50 c21 27 51 67 66 90 15 22 37 51 49 64 l22 23 -75 -7 c-90 -8 -194 15 -312 71 -99 46 -105 53 -76 92 13 17 25 31 27 31 3 0 26 -13 52 -29z m-6521 -12 c14 -19 19 -34 13 -38 -42 -27 -181 -138 -182 -145 0 -5 15 -25 33 -45 51 -59 112 -133 115 -143 4 -10 -38 -47 -53 -47 -5 0 -34 30 -63 67 -29 37 -63 79 -77 95 l-24 27 -61 -46 -60 -47 38 -41 c20 -23 65 -75 99 -117 l62 -76 -23 -22 c-12 -11 -27 -21 -34 -21 -6 0 -48 46 -93 103 -46 56 -103 124 -127 150 l-44 49 28 18 c16 10 115 83 219 163 105 80 195 145 201 146 5 1 21 -13 33 -30z m6427 -329 c76 -69 166 -150 199 -181 l61 -56 -18 -23 c-16 -20 -27 -23 -74 -21 -31 1 -79 -5 -109 -14 l-54 -17 -25 27 c-14 15 -26 31 -26 36 0 4 31 15 69 25 l69 18 -77 70 c-41 39 -108 100 -147 136 -40 36 -72 69 -73 74 -2 15 42 57 55 54 6 -2 74 -59 150 -128z m-6031 -104 l140 -134 -27 -28 -28 -28 -47 44 c-27 25 -78 74 -116 110 l-67 65 -60 -61 -61 -60 106 -103 105 -104 -22 -26 c-13 -14 -24 -28 -26 -30 -1 -3 -49 41 -106 97 -57 56 -107 102 -111 102 -4 0 -32 -22 -61 -50 l-52 -50 121 -115 122 -114 -27 -27 -27 -27 -150 142 c-83 79 -151 148 -151 153 0 6 53 60 118 121 64 62 151 144 192 184 41 40 80 73 85 73 6 0 74 -60 150 -134z m5743 -69 c23 -12 68 -47 99 -77 152 -149 177 -259 79 -356 -96 -97 -214 -69 -334 79 -125 154 -135 271 -30 347 53 39 122 41 186 7z m-4456 -61 c16 -77 57 -118 134 -134 51 -10 51 -34 0 -44 -77 -16 -118 -57 -134 -134 -10 -51 -34 -51 -44 0 -16 77 -57 118 -134 134 -51 10 -51 34 0 44 21 5 51 16 67 25 31 18 69 85 69 119 0 50 32 42 42 -10z m-1011 -116 c40 -33 76 -57 82 -53 5 3 7 2 4 -4 -4 -6 5 -21 19 -34 52 -48 68 -120 43 -186 -17 -46 -69 -93 -111 -100 -37 -5 -38 -7 -38 -45 0 -107 -111 -169 -208 -116 -60 33 -220 160 -221 176 -1 15 16 37 197 249 72 86 132 160 132 165 0 21 36 3 101 -52z m5120 -32 c25 -31 24 -44 -6 -64 -14 -9 -23 -19 -20 -23 2 -4 -1 -8 -8 -8 -18 0 -68 -34 -62 -42 2 -4 -1 -8 -8 -8 -7 0 -26 -8 -42 -19 l-29 -19 114 -8 c233 -17 327 -73 317 -189 -5 -59 -34 -103 -99 -147 -65 -45 -127 -48 -187 -8 -23 15 -41 33 -41 40 0 7 14 23 30 35 l30 23 28 -21 c52 -39 131 -5 147 62 6 22 1 33 -22 57 -36 35 -77 47 -208 61 -125 13 -167 26 -212 65 l-36 31 138 102 c76 56 142 102 147 102 6 0 18 -10 29 -22z m-4800 -205 c16 -10 29 -21 29 -26 0 -12 -68 -136 -96 -173 l-22 -30 57 -32 c59 -32 91 -34 119 -5 8 7 18 11 23 8 5 -4 9 -3 9 2 0 4 34 26 75 47 41 22 75 43 75 48 0 5 18 -1 40 -12 22 -11 40 -26 40 -33 -1 -16 -187 -125 -228 -133 l-33 -7 24 -26 c34 -36 47 -64 47 -101 0 -40 -35 -104 -66 -121 -13 -7 -24 -16 -24 -20 0 -14 -52 -19 -93 -8 -43 11 -307 167 -307 181 0 5 56 91 125 192 69 102 125 187 125 190 0 8 44 76 48 76 2 0 17 -8 33 -17z m4234 -71 c33 -30 75 -92 75 -110 0 -11 -50 -42 -67 -42 -12 0 -42 79 -31 82 17 6 -3 36 -28 42 -17 5 -24 13 -24 31 0 34 36 33 75 -3z m-140 -186 c101 -43 218 -221 219 -335 0 -80 -41 -148 -114 -186 -53 -27 -137 -17 -187 23 -48 37 -83 106 -83 160 0 46 35 118 71 144 34 26 93 38 130 28 26 -8 28 -7 19 9 -5 10 -28 35 -51 55 -36 33 -46 37 -77 32 -51 -8 -67 -28 -65 -81 1 -43 1 -44 -39 -50 -50 -9 -60 4 -55 63 6 54 49 119 90 137 42 18 99 19 142 1z m-3474 -62 c29 -16 66 -46 83 -67 27 -35 31 -46 30 -100 -1 -50 -12 -89 -57 -205 -32 -78 -57 -147 -57 -152 0 -6 -6 -26 -14 -45 l-15 -34 -40 16 c-45 18 -50 32 -26 85 8 18 37 92 65 165 56 149 62 198 28 230 -52 46 -146 60 -179 26 -10 -10 -56 -96 -103 -190 -47 -95 -90 -173 -96 -173 -5 0 -25 7 -44 17 l-35 16 81 161 c91 182 138 252 182 272 47 22 134 12 197 -22z m3069 -86 c0 -18 129 -365 161 -434 16 -34 29 -63 29 -66 0 -4 -13 -11 -30 -16 -25 -9 -37 -6 -85 20 -30 16 -70 31 -88 32 -17 2 -39 4 -47 5 -17 1 -45 65 -36 79 3 5 27 5 53 1 26 -4 55 -8 64 -8 13 -1 4 35 -47 183 -47 138 -60 187 -51 194 28 22 77 29 77 10z m-2792 -31 c11 -8 12 -31 7 -101 -4 -50 -4 -88 0 -84 3 3 45 -7 93 -23 47 -16 91 -29 96 -29 6 0 31 32 56 70 44 70 46 71 80 64 45 -8 53 -13 46 -30 -3 -8 -52 -76 -109 -151 -56 -76 -129 -176 -161 -223 -33 -47 -60 -87 -62 -89 -2 -2 -25 2 -53 9 l-49 12 -7 61 c-4 33 -10 168 -14 300 l-6 238 35 -6 c19 -4 41 -12 48 -18z m510 -142 c2 -2 -8 -54 -22 -116 -15 -61 -25 -113 -24 -114 14 -12 112 -23 132 -15 14 5 60 52 103 104 76 93 79 96 121 96 30 0 42 -4 42 -15 0 -18 -122 -178 -155 -203 l-22 -17 43 -38 c29 -25 47 -52 54 -78 25 -93 -44 -187 -141 -189 -87 -2 -329 48 -329 68 0 7 6 41 14 75 8 34 22 103 31 152 9 50 28 139 42 199 l26 108 41 -6 c22 -4 42 -9 44 -11z m1592 -27 c1 -75 116 -256 225 -356 78 -71 95 -116 48 -125 -15 -3 -100 -19 -187 -36 -88 -17 -161 -29 -162 -28 -2 2 -6 21 -10 44 l-6 40 38 9 c22 4 44 9 49 9 6 1 17 5 25 8 8 3 48 11 88 17 l73 12 -38 28 c-74 54 -175 194 -211 293 -31 81 -29 95 11 100 17 2 38 5 45 5 6 1 12 -8 12 -20z m-302 -120 c6 -51 20 -169 31 -263 11 -93 20 -178 21 -187 0 -31 -54 -23 -89 13 -17 17 -35 27 -41 24 -6 -4 -9 -1 -8 6 2 7 -21 24 -49 38 -50 24 -53 28 -53 64 0 46 15 48 85 9 l51 -28 -8 65 c-5 37 -13 100 -18 141 -28 213 -29 210 28 210 l39 0 11 -92z m759 69 c1 -12 4 -31 5 -41 3 -17 -11 -23 -96 -44 -97 -24 -99 -25 -113 -6 -30 41 -14 55 97 84 58 15 105 28 105 29 0 0 1 -9 2 -22z m-1421 -115 l-3 -119 104 -157 c56 -86 103 -161 103 -166 0 -6 -22 -10 -50 -10 l-49 0 -72 120 c-40 67 -75 122 -78 125 -4 2 -32 -29 -63 -68 -32 -40 -74 -91 -95 -115 -37 -42 -40 -43 -80 -36 -24 3 -43 11 -43 16 0 9 68 96 177 226 45 52 53 69 54 105 1 23 0 46 -1 52 -1 5 1 40 5 77 l7 68 43 0 43 0 -2 -118z"/>
 <path d="M5070 9463 c0 -2 17 -53 37 -113 l37 -109 43 106 c24 58 42 107 41 108 -5 4 -158 12 -158 8z"/>
 <path d="M3678 9282 c-26 -9 -50 -20 -53 -24 -4 -3 17 -36 47 -73 49 -62 53 -65 59 -43 10 33 11 158 2 157 -5 0 -29 -8 -55 -17z"/>
 <path d="M5061 7015 l-12 -55 -103 0 -103 0 -15 53 -16 52 -1 -137 -1 -138 135 0 135 0 0 140 c0 77 -2 140 -3 140 -2 0 -9 -25 -16 -55z"/>
 <path d="M4603 6625 c70 -52 129 -95 132 -95 3 0 5 43 5 95 l0 95 -132 0 -131 0 126 -95z"/>
 <path d="M4810 6596 l0 -125 59 -45 c33 -25 64 -46 71 -46 6 0 40 21 75 48 l64 47 1 123 0 122 -135 0 -135 0 0 -124z"/>
 <path d="M5150 6625 l0 -96 123 92 c67 51 124 94 126 96 2 1 -53 3 -122 3 l-127 0 0 -95z"/>
 <path d="M4810 6345 c0 -73 3 -74 62 -23 l27 23 -44 33 -45 33 0 -66z"/>
 <path d="M5032 6379 c-23 -17 -42 -34 -42 -38 0 -4 20 -22 45 -40 l45 -32 0 70 c0 39 -1 71 -3 71 -2 0 -22 -14 -45 -31z"/>
 <path d="M4873 6262 l-62 -47 -1 -137 0 -138 135 0 135 0 0 134 0 134 -69 51 c-38 28 -70 51 -72 50 -2 0 -32 -21 -66 -47z"/>
 <path d="M7820 1870 c-84 -10 -90 -80 -17 -183 47 -66 128 -146 149 -148 81 -6 128 25 128 85 0 39 -60 127 -132 192 -59 54 -74 61 -128 54z"/>
 <path d="M2337 1643 l-54 -67 31 -23 c85 -63 122 -83 151 -83 38 0 62 24 71 68 8 41 -10 68 -85 126 l-59 46 -55 -67z"/>
 <path d="M2187 1462 c-26 -31 -47 -59 -46 -62 0 -9 120 -91 147 -101 36 -14 77 5 93 42 15 38 0 60 -87 130 l-61 48 -46 -57z"/>
 <path d="M2614 1167 c-21 -33 -40 -63 -42 -67 -3 -9 131 -94 173 -110 58 -22 115 31 100 93 -9 32 -23 45 -116 99 l-75 45 -40 -60z"/>
 <path d="M6848 1015 c-31 -17 -52 -71 -42 -109 3 -15 19 -40 34 -56 23 -25 36 -30 73 -30 61 0 88 23 94 81 6 51 -14 101 -46 119 -28 14 -81 12 -113 -5z"/>
 <path d="M3684 788 c3 -18 8 -68 11 -111 8 -89 -1 -92 88 35 l47 67 -68 21 c-38 11 -72 20 -76 20 -4 0 -5 -15 -2 -32z"/>
 <path d="M4112 565 c-7 -35 -15 -71 -18 -80 -5 -11 0 -15 17 -15 13 0 61 -7 106 -16 66 -13 88 -14 111 -5 29 12 52 47 52 77 0 23 -58 77 -75 70 -8 -3 -17 -1 -20 5 -4 5 -10 7 -15 4 -5 -3 -39 1 -75 10 -37 8 -67 15 -69 15 -1 0 -8 -29 -14 -65z"/>
 </g>

</svg>