<!DOCTYPE svg PUBLIC "-//W3C//DTD SVG 20010904//EN" "http://www.w3.org/TR/2001/REC-SVG-20010904/DTD/svg10.dtd">
<svg version="1.0" xmlns="http://www.w3.org/2000/svg" width="1000px" height="1000px" viewBox="0 0 10000 10000" preserveAspectRatio="xMidYMid meet">
<g id="layer1" fill="#ffffff" stroke="none">
 <path d="M4680 9989 c-1191 -80 -2376 -616 -3214 -1455 -994 -993 -1546 -2447 -1455 -3829 72 -1101 499 -2145 1224 -2992 644 -750 1596 -1325 2605 -1571 1140 -279 2325 -140 3401 399 1147 573 1988 1516 2445 2737 484 1294 403 2705 -227 3963 -531 1062 -1371 1857 -2474 2339 -723 316 -1535 460 -2305 409z m545 -169 c572 -37 1118 -164 1625 -378 813 -344 1486 -863 1992 -1537 291 -388 554 -887 717 -1359 193 -560 293 -1225 262 -1744 -44 -722 -214 -1354 -536 -1987 -246 -484 -513 -855 -879 -1221 -366 -366 -737 -633 -1221 -879 -633 -322 -1265 -492 -1987 -536 -626 -38 -1402 106 -2048 379 -813 344 -1486 863 -1992 1537 -291 388 -554 887 -717 1359 -193 560 -293 1225 -262 1743 36 593 160 1135 379 1653 344 813 863 1486 1537 1992 577 432 1278 744 1995 888 410 82 788 112 1135 90z"/>
 <path d="M4892 9698 c3 -7 49 -131 104 -275 98 -261 99 -263 131 -269 18 -3 39 -4 46 -1 7 2 66 121 131 263 65 143 121 262 123 267 2 4 -17 7 -44 7 l-48 0 -35 -80 -34 -80 -82 0 c-139 0 -138 0 -176 96 l-33 84 -44 0 c-30 0 -42 -4 -39 -12z m336 -243 c1 -1 -17 -50 -41 -108 l-43 -106 -37 109 c-20 60 -37 111 -37 113 0 4 153 -4 158 -8z"/>
 <path d="M4764 9576 l6 -124 -62 -6 c-35 -3 -95 -9 -134 -12 l-72 -6 -6 38 c-3 22 -8 66 -11 99 -11 113 -11 111 -55 107 -29 -3 -40 -9 -40 -21 0 -30 68 -522 72 -527 3 -2 20 -1 38 2 l33 7 -6 56 c-4 31 -9 81 -13 112 l-6 56 78 7 c44 4 102 9 130 12 l51 6 6 -39 c4 -21 7 -73 7 -115 l0 -78 41 0 42 0 -7 153 c-3 83 -9 207 -12 275 l-6 122 -41 0 -40 0 7 -124z"/>
 <path d="M5570 9641 c-80 -42 -130 -149 -130 -277 0 -124 45 -204 139 -246 53 -24 146 -26 189 -4 28 14 102 91 102 106 0 3 -17 14 -37 24 -35 17 -37 17 -47 -1 -5 -10 -22 -30 -37 -45 -23 -23 -36 -28 -77 -28 -60 0 -107 29 -135 83 -45 88 -10 266 62 314 45 30 122 31 169 3 32 -20 71 -86 72 -122 0 -14 9 -18 40 -18 35 0 40 3 40 23 0 75 -54 156 -125 188 -56 26 -178 26 -225 0z"/>
 <path d="M4052 9610 c-18 -4 -35 -10 -38 -12 -2 -3 7 -54 21 -114 l24 -109 -55 -174 c-30 -96 -53 -176 -50 -178 2 -2 28 2 57 10 l53 13 36 120 35 120 79 -94 79 -94 56 7 c31 4 58 8 60 10 2 2 -52 67 -119 144 l-121 140 -21 111 c-23 121 -20 118 -96 100z"/>
 <path d="M6046 9573 c-17 -57 -116 -516 -112 -520 2 -3 19 -6 37 -6 l32 -2 28 108 c15 60 29 110 31 112 1 2 40 -63 84 -143 79 -143 83 -148 128 -164 29 -11 46 -14 46 -7 0 6 -30 69 -67 139 -38 71 -66 130 -63 133 3 2 76 54 163 116 86 61 157 113 157 115 0 2 -21 11 -46 20 l-47 16 -135 -100 -136 -100 -29 47 -29 46 21 83 c28 112 33 100 -41 120 -10 3 -19 -2 -22 -13z"/>
 <path d="M3819 9554 c-51 -16 -59 -29 -59 -100 l0 -41 -107 -35 -108 -35 -45 49 -45 50 -57 -23 c-57 -21 -57 -22 -40 -43 9 -12 97 -112 196 -223 l178 -201 44 15 c50 17 42 -16 79 321 27 238 29 283 18 281 -5 -1 -29 -7 -54 -15z m-80 -321 c-1 -38 -4 -78 -8 -91 -6 -22 -10 -19 -59 43 -30 37 -51 70 -47 73 6 7 93 40 108 41 4 1 7 -29 6 -66z"/>
 <path d="M6557 9368 c-37 -23 -77 -72 -77 -94 0 -6 16 -16 36 -22 34 -10 37 -9 66 23 53 61 149 56 215 -10 39 -39 42 -71 11 -110 l-22 -28 -90 9 c-180 17 -223 8 -262 -51 -23 -36 -22 -114 2 -156 31 -53 104 -92 178 -97 69 -5 104 8 145 52 28 29 23 51 -14 60 -20 5 -34 1 -56 -19 -49 -41 -132 -27 -177 30 -27 34 -28 66 -2 90 18 16 31 17 122 10 181 -14 223 -3 259 67 43 85 6 179 -91 232 -43 23 -70 30 -130 33 -65 4 -80 1 -113 -19z"/>
 <path d="M3121 9318 c-19 -7 -54 -30 -77 -52 -51 -49 -63 -95 -41 -158 16 -47 28 -51 91 -24 34 14 34 15 24 50 -14 45 7 81 54 91 46 10 60 -11 147 -210 40 -94 76 -173 80 -177 9 -11 91 22 91 36 0 6 -32 92 -72 191 -90 225 -115 257 -204 261 -32 2 -74 -2 -93 -8z"/>
 <path d="M4803 9043 c-10 -3 -13 -53 -13 -199 l0 -194 -184 0 c-180 0 -185 -1 -200 -22 -21 -30 -20 -44 4 -68 19 -19 33 -20 200 -20 l180 0 0 -300 0 -300 -180 0 c-167 0 -181 -1 -200 -20 -11 -11 -20 -27 -20 -35 0 -8 9 -24 20 -35 19 -19 33 -20 200 -20 l180 0 0 -305 0 -305 -190 0 -190 0 -12 -25 c-9 -19 -8 -29 6 -50 l16 -25 160 0 160 0 0 -165 0 -164 -147 -3 -148 -3 -3 -27 c-2 -17 1 -28 9 -28 8 0 8 -4 -1 -15 -17 -21 -8 -30 154 -150 l135 -100 1 -121 0 -122 -151 -112 c-102 -77 -148 -118 -145 -127 4 -8 6 -17 6 -19 0 -16 40 9 157 96 l133 100 0 -110 0 -109 -147 -3 -148 -3 0 -30 0 -30 148 -3 147 -3 0 -760 c0 -694 1 -760 16 -766 9 -3 24 -2 33 4 14 9 16 83 19 767 l2 756 135 0 135 0 2 -762 3 -763 30 0 30 0 3 763 2 762 144 0 c137 0 145 1 151 20 14 43 -8 50 -156 50 l-139 0 0 106 c0 81 3 103 13 98 6 -4 65 -48 130 -97 112 -84 147 -99 147 -63 0 8 -65 63 -145 122 l-145 108 0 127 0 127 145 108 c138 103 159 124 134 139 -6 5 -4 11 6 19 10 7 16 21 13 32 -3 18 -14 19 -151 22 l-147 3 0 164 0 165 135 0 c133 0 135 0 151 25 14 21 15 31 6 50 l-12 25 -175 0 -175 0 0 305 0 305 165 0 c152 0 167 2 185 20 11 11 20 27 20 35 0 8 -9 24 -20 35 -18 18 -33 20 -185 20 l-165 0 0 300 0 300 165 0 c152 0 167 2 185 20 24 24 25 38 4 68 -15 21 -21 22 -185 22 l-169 0 0 200 0 200 -132 -1 c-73 0 -139 -3 -145 -6z m277 -2113 l0 -140 -135 0 -135 0 1 138 1 137 16 -52 15 -53 103 0 103 0 12 55 c7 30 14 55 16 55 1 0 3 -63 3 -140z m-340 -305 c0 -52 -2 -95 -5 -95 -3 0 -62 43 -132 95 l-126 95 131 0 132 0 0 -95z m340 -27 l-1 -123 -64 -47 c-35 -27 -69 -48 -75 -48 -7 0 -38 21 -71 46 l-59 45 0 125 0 124 135 0 135 0 0 -122z m319 119 c-2 -2 -59 -45 -126 -96 l-123 -92 0 96 0 95 127 0 c69 0 124 -2 122 -3z m-527 -395 c-59 -51 -62 -50 -62 23 l0 66 45 -33 44 -33 -27 -23z m208 17 l0 -70 -45 32 c-25 18 -45 36 -45 40 0 6 79 69 87 69 2 0 3 -32 3 -71z m-69 -80 l69 -51 0 -134 0 -134 -135 0 -135 0 0 138 1 137 62 47 c34 26 64 47 66 47 2 1 34 -22 72 -50z"/>
 <path d="M5580 6665 l0 -2335 -640 0 -640 0 0 2329 0 2329 -112 -24 c-171 -37 -396 -100 -539 -151 l-129 -47 0 -2120 c0 -1167 3 -2299 7 -2517 l6 -396 78 -62 77 -61 1289 0 1288 0 83 83 83 83 2 2504 2 2503 -107 38 c-197 70 -636 179 -721 179 l-27 0 0 -2335z"/>
 <path d="M6992 8553 c-38 -150 -85 -197 -235 -235 -61 -16 -87 -27 -87 -38 0 -11 26 -22 87 -38 48 -12 104 -33 125 -47 54 -36 84 -88 110 -188 16 -61 27 -87 38 -87 11 0 22 26 38 87 38 150 84 196 237 236 55 15 90 29 90 37 0 8 -35 22 -90 37 -153 40 -199 86 -237 236 -16 61 -27 87 -38 87 -11 0 -22 -26 -38 -87z"/>
 <path d="M2619 7748 c-38 -129 -68 -159 -197 -197 -40 -12 -72 -26 -72 -31 0 -5 31 -18 69 -30 135 -40 161 -66 200 -198 12 -40 26 -72 31 -72 5 0 19 32 31 72 38 129 68 159 197 197 40 12 72 26 72 31 0 5 -32 19 -72 31 -129 38 -159 68 -197 197 -12 40 -26 72 -31 72 -5 0 -19 -32 -31 -72z"/>
 <path d="M8735 6993 c-46 -178 -86 -258 -157 -315 -40 -32 -159 -81 -225 -92 -50 -9 -103 -28 -103 -37 0 -4 30 -15 68 -24 177 -46 257 -86 314 -157 32 -40 81 -159 92 -225 9 -50 28 -103 37 -103 4 0 15 30 24 68 46 175 90 263 161 317 39 30 145 71 257 100 37 9 67 20 67 24 0 8 -51 27 -100 36 -64 12 -171 55 -216 85 -76 53 -122 140 -169 323 -9 37 -21 67 -25 67 -4 0 -16 -30 -25 -67z"/>
 <path d="M917 6594 c-4 -4 -7 -16 -7 -28 0 -34 -38 -101 -69 -119 -16 -9 -46 -20 -67 -25 -51 -10 -51 -34 0 -44 77 -16 118 -57 134 -134 5 -23 14 -39 22 -39 8 0 17 16 22 39 16 77 57 118 134 134 51 10 51 34 0 44 -77 16 -118 57 -134 134 -7 37 -21 51 -35 38z"/>
 <path d="M6994 5383 c-42 -151 -76 -186 -226 -227 -32 -9 -58 -21 -58 -26 0 -5 26 -17 58 -26 150 -42 185 -76 226 -226 9 -32 21 -58 26 -58 5 0 17 26 26 58 41 150 76 184 227 226 31 9 57 21 57 26 0 5 -26 17 -57 26 -151 41 -185 76 -227 227 -9 31 -21 57 -26 57 -5 0 -17 -26 -26 -57z"/>
 <path d="M2694 5303 c-44 -202 -95 -253 -296 -297 -16 -4 -28 -13 -28 -21 0 -8 12 -17 28 -21 173 -38 234 -83 269 -199 12 -39 24 -82 27 -97 4 -16 13 -28 21 -28 8 0 17 12 21 28 44 201 95 252 297 296 15 4 27 13 27 21 0 8 -12 17 -27 21 -202 44 -253 95 -297 297 -4 15 -13 27 -21 27 -8 0 -17 -12 -21 -27z"/>
 <path d="M8399 3888 c-38 -129 -68 -159 -197 -197 -40 -12 -72 -26 -72 -31 0 -5 31 -18 69 -30 135 -40 161 -66 200 -198 12 -40 26 -72 31 -72 5 0 19 32 31 72 38 129 68 159 197 197 40 12 72 26 72 31 0 5 -32 19 -72 31 -129 38 -159 68 -197 197 -12 40 -26 72 -31 72 -5 0 -19 -32 -31 -72z"/>
 <path d="M3740 3508 l0 -43 130 -74 c72 -40 130 -77 130 -82 0 -5 29 -327 65 -716 36 -390 65 -716 65 -725 0 -11 43 -39 134 -87 73 -39 140 -71 147 -71 8 1 111 45 229 99 l215 98 17 669 c9 368 18 738 20 822 l3 152 -577 0 -578 0 0 -42z"/>
 <path d="M5080 3473 c-1 -196 32 -1502 38 -1531 7 -32 14 -36 226 -133 l219 -99 136 71 c75 40 137 72 138 73 0 1 31 329 68 730 36 401 68 732 70 736 3 4 61 40 130 79 l125 73 0 39 0 39 -575 0 -575 0 0 -77z"/>
 <path d="M2276 3498 c-3 -13 -8 -41 -11 -62 -11 -68 -58 -169 -98 -213 -41 -44 -146 -96 -222 -108 -75 -12 -85 -15 -85 -30 0 -15 10 -18 85 -30 76 -12 181 -64 222 -108 40 -44 87 -145 98 -213 12 -74 15 -84 30 -84 15 0 18 10 30 85 12 76 64 181 108 222 44 40 145 87 213 98 74 12 84 15 84 30 0 15 -10 18 -85 30 -76 12 -181 64 -222 108 -40 44 -87 145 -98 213 -12 74 -15 84 -30 84 -8 0 -17 -10 -19 -22z"/>
 <path d="M8231 2449 c-29 -39 -23 -46 76 -92 118 -56 222 -79 312 -71 l75 7 -23 -24 c-12 -13 -38 -46 -57 -74 -18 -27 -48 -69 -66 -93 -29 -39 -31 -45 -16 -53 9 -5 25 -17 34 -26 15 -16 19 -14 55 28 21 24 39 48 39 52 0 5 37 56 82 115 l82 106 -27 20 c-23 17 -43 20 -159 21 -119 1 -141 4 -207 29 -41 15 -95 41 -121 57 -26 16 -49 29 -52 29 -2 0 -14 -14 -27 -31z"/>
 <path d="M1555 2324 c-104 -80 -203 -154 -218 -164 l-28 -18 43 -48 c24 -27 80 -95 126 -152 46 -56 88 -102 94 -102 7 0 22 10 35 21 l22 22 -28 36 c-16 20 -60 73 -99 117 l-71 82 60 46 60 46 24 -27 c14 -16 48 -58 77 -95 29 -37 58 -67 63 -67 12 0 55 34 55 44 0 4 -34 48 -75 97 -41 49 -75 93 -75 96 1 6 148 121 183 143 12 8 -29 69 -46 68 -7 0 -97 -66 -202 -145z"/>
 <path d="M6786 2388 c-24 -86 -39 -128 -55 -155 -23 -37 -77 -67 -154 -87 -28 -7 -52 -19 -52 -26 0 -7 24 -19 54 -27 118 -30 164 -76 194 -194 8 -30 20 -54 27 -54 7 0 19 24 27 54 7 30 24 73 36 95 25 46 77 79 158 99 30 8 54 20 54 27 0 7 -24 19 -54 27 -118 30 -164 76 -194 193 -14 52 -33 76 -41 48z"/>
 <path d="M8032 2217 c-12 -13 -22 -27 -21 -33 1 -5 67 -70 147 -144 l147 -135 -67 -19 c-38 -10 -68 -23 -68 -28 0 -6 12 -22 26 -35 27 -25 27 -25 80 -8 30 9 77 15 110 14 48 -2 59 0 75 19 18 23 17 23 -45 80 -206 189 -340 307 -350 310 -7 1 -22 -8 -34 -21z"/>
 <path d="M1835 1959 c-104 -100 -190 -188 -190 -196 0 -9 67 -79 148 -156 l148 -141 27 28 27 27 -122 114 -121 115 54 52 54 51 28 -24 c15 -13 64 -59 109 -103 45 -44 84 -78 85 -75 2 2 13 16 26 30 l22 26 -105 104 -106 104 62 59 61 58 67 -63 c36 -36 87 -84 113 -109 l48 -44 25 24 c14 13 25 28 24 34 -1 14 -265 260 -281 263 -7 1 -98 -79 -203 -178z"/>
 <path d="M3377 1974 c-4 -4 -7 -16 -7 -28 0 -34 -38 -101 -69 -119 -16 -9 -46 -20 -67 -25 -51 -10 -51 -34 0 -44 77 -16 118 -57 134 -134 10 -51 34 -51 44 0 16 77 57 118 134 134 51 10 51 34 0 44 -77 16 -118 57 -134 134 -7 37 -21 51 -35 38z"/>
 <path d="M7749 1937 c-82 -55 -102 -144 -53 -241 70 -140 198 -249 294 -249 46 0 89 23 128 67 57 65 60 132 10 230 -27 52 -152 174 -202 197 -58 26 -135 25 -177 -4z m199 -121 c73 -66 132 -153 132 -193 0 -70 -74 -104 -147 -68 -55 27 -164 162 -179 219 -8 35 13 85 40 91 75 16 87 12 154 -49z"/>
 <path d="M2347 1795 c-9 -13 -70 -87 -135 -164 -169 -202 -182 -218 -182 -233 0 -13 81 -88 95 -88 4 0 25 -16 48 -35 90 -78 173 -93 234 -45 38 30 52 58 53 106 0 40 1 42 38 47 42 7 94 54 111 100 15 40 14 103 -4 136 -8 16 -11 32 -7 36 4 5 2 5 -4 2 -14 -8 -57 36 -47 48 5 4 3 5 -3 2 -6 -4 -43 20 -82 53 -39 33 -77 60 -84 60 -7 0 -21 -12 -31 -25z m180 -201 c31 -48 -5 -124 -59 -124 -36 0 -60 12 -119 61 -26 22 -52 39 -58 39 -6 0 -2 13 10 30 12 16 27 26 33 23 6 -3 8 -3 4 2 -4 4 6 25 23 46 l31 39 59 -46 c33 -25 67 -57 76 -70z m-153 -197 c16 -22 17 -30 7 -56 -15 -34 -57 -55 -88 -44 -24 9 -152 96 -153 103 0 3 21 31 47 62 l46 57 61 -48 c34 -27 70 -60 80 -74z"/>
 <path d="M7419 1659 c-68 -50 -131 -95 -139 -100 -12 -8 -8 -15 22 -42 46 -41 86 -54 213 -67 124 -13 168 -25 202 -54 50 -43 29 -113 -42 -136 -32 -11 -60 -5 -96 21 -12 9 -21 6 -42 -13 -34 -32 -34 -42 3 -68 70 -50 144 -46 216 10 77 61 104 152 64 218 -40 66 -125 97 -292 107 -60 4 -108 10 -108 14 0 12 57 41 65 33 5 -4 5 -2 2 4 -7 12 38 47 60 47 7 0 10 4 8 8 -3 4 6 14 19 22 21 14 46 64 25 52 -4 -3 -14 3 -21 15 -7 11 -18 20 -24 20 -6 0 -67 -41 -135 -91z"/>
 <path d="M2731 1518 c-8 -13 -20 -34 -28 -48 -32 -62 -199 -298 -207 -293 -5 4 -6 2 -3 -4 3 -5 -5 -26 -18 -46 -14 -20 -25 -40 -25 -45 0 -15 247 -163 298 -178 45 -14 102 -11 102 5 0 4 11 13 24 20 31 17 66 81 66 121 0 37 -13 65 -47 101 l-24 26 33 7 c41 8 227 117 228 133 0 7 -17 21 -37 31 l-37 19 -50 -32 c-28 -18 -71 -42 -96 -55 -25 -12 -48 -28 -52 -34 -4 -6 -8 -7 -8 -3 0 4 -9 3 -20 -3 -17 -9 -31 -5 -79 21 l-59 33 22 30 c28 37 96 161 96 173 0 7 -51 43 -62 43 -2 0 -10 -10 -17 -22z m60 -375 c15 -7 31 -19 37 -26 51 -64 -9 -155 -83 -127 -42 16 -176 101 -173 110 2 4 21 34 43 67 l39 61 56 -36 c30 -19 67 -42 81 -49z"/>
 <path d="M6940 1456 c0 -15 7 -27 19 -31 27 -8 48 -35 34 -43 -12 -8 15 -82 30 -82 17 0 67 31 67 42 0 6 -10 27 -22 46 -50 80 -128 122 -128 68z"/>
 <path d="M6735 1266 c-16 -7 -38 -22 -47 -32 -24 -27 -48 -88 -48 -121 0 -46 12 -56 59 -48 l40 7 -1 44 c-3 52 13 72 64 80 31 5 41 1 77 -32 23 -20 46 -45 51 -55 9 -16 7 -17 -19 -9 -36 10 -96 -2 -130 -27 -36 -27 -71 -99 -71 -149 0 -52 35 -119 83 -158 31 -25 48 -31 100 -33 79 -5 128 22 172 91 43 71 41 136 -10 241 -81 170 -209 250 -320 201z m219 -247 c36 -17 60 -72 53 -123 -7 -53 -36 -76 -92 -76 -76 0 -129 74 -105 146 18 55 85 79 144 53z"/>
 <path d="M3203 1226 c-44 -20 -84 -79 -180 -269 l-82 -162 32 -17 c18 -9 38 -17 44 -18 7 0 53 81 103 180 55 110 98 184 111 191 31 16 81 14 120 -6 57 -29 69 -45 69 -88 0 -36 -14 -76 -110 -322 -28 -70 -26 -80 21 -98 l40 -16 15 34 c8 19 14 39 14 44 0 5 24 72 54 149 61 158 71 197 62 247 -20 107 -210 198 -313 151z"/>
 <path d="M6420 1123 c-41 -15 -40 -21 24 -209 51 -148 60 -184 47 -183 -9 0 -38 4 -64 8 -26 4 -50 4 -53 -1 -9 -14 19 -78 36 -79 8 -1 30 -3 47 -5 18 -1 58 -16 88 -32 48 -26 60 -29 86 -20 31 11 33 28 4 73 -15 24 -165 427 -165 443 0 12 -24 15 -50 5z"/>
 <path d="M3601 873 c4 -132 10 -267 14 -300 l7 -61 49 -12 c28 -7 51 -11 53 -9 2 2 29 42 62 89 32 47 105 147 161 223 57 75 106 143 109 151 7 17 -1 22 -46 30 -34 7 -36 6 -80 -64 -25 -38 -49 -70 -55 -70 -5 0 -52 14 -103 31 l-94 31 7 82 c8 92 2 103 -57 112 l-33 6 6 -239z m160 -73 l69 -21 -41 -58 c-22 -32 -51 -71 -64 -87 l-23 -29 -6 70 c-4 39 -9 87 -11 108 -3 20 -2 37 1 37 4 0 38 -9 75 -20z"/>
 <path d="M4077 854 c-14 -60 -33 -149 -42 -199 -9 -49 -23 -118 -31 -152 -8 -34 -14 -68 -14 -75 0 -16 249 -71 315 -70 78 2 137 46 156 116 16 58 -2 106 -55 153 l-43 38 22 17 c33 25 155 184 155 202 0 12 -11 16 -43 16 -42 0 -44 -2 -118 -92 -90 -112 -107 -122 -181 -107 -29 6 -54 12 -56 14 -1 1 9 53 24 114 14 62 24 114 22 116 -2 2 -22 7 -44 11 l-41 6 -26 -108z m115 -239 c35 -8 81 -16 103 -19 41 -5 85 -42 85 -71 0 -29 -22 -61 -51 -74 -26 -11 -43 -11 -112 3 -45 9 -93 16 -106 16 -17 0 -22 4 -17 16 4 9 12 45 18 80 7 35 14 64 15 64 1 0 30 -7 65 -15z"/>
 <path d="M5723 933 c-40 -5 -42 -19 -11 -100 36 -99 137 -239 211 -293 l38 -28 -68 -11 c-37 -6 -99 -19 -136 -28 l-69 -17 7 -40 c3 -22 7 -42 9 -44 4 -3 166 27 299 56 l78 17 -6 35 c-4 19 -12 37 -18 39 -27 10 -129 118 -177 187 -53 76 -100 177 -100 214 0 11 -6 19 -12 18 -7 0 -28 -3 -45 -5z"/>
 <path d="M5383 874 c-6 -15 -3 -40 17 -194 5 -41 13 -104 18 -141 l8 -65 -51 28 c-70 39 -85 37 -85 -9 0 -36 3 -40 53 -64 28 -14 51 -31 49 -38 -1 -7 2 -10 8 -6 6 3 24 -7 41 -24 35 -36 89 -44 89 -13 -1 9 -10 94 -21 187 -11 94 -25 212 -31 263 l-11 92 -39 0 c-26 0 -41 -5 -45 -16z"/>
 <path d="M6130 860 c-111 -29 -127 -43 -97 -84 14 -19 16 -18 113 6 85 21 99 27 96 44 -1 10 -4 29 -5 41 -1 13 -2 22 -2 22 0 -1 -47 -14 -105 -29z"/>
 <path d="M4725 802 c-4 -37 -6 -72 -5 -77 1 -6 2 -29 1 -51 -1 -37 -12 -55 -116 -180 -112 -135 -130 -164 -101 -164 7 0 27 -3 43 -6 28 -6 36 1 126 110 94 114 97 116 111 94 51 -81 126 -210 126 -218 0 -6 25 -10 55 -10 30 0 55 4 55 10 0 5 -47 80 -103 166 l-104 157 3 119 2 118 -43 0 -43 0 -7 -68z"/>
 </g>

</svg>